<svg xmlns="http://www.w3.org/2000/svg" id="Capa_1" height="512" viewBox="0 0 609.62 609.62" width="512"><g><g id="Page-1_47_"><g id="_x30_48---Cement-Mixer" transform="translate(0 -1)"><path id="Path_58_" clip-rule="evenodd" d="m304.81 351.467h-32.605l-5.08-22.566c-.802-3.541-3.433-6.385-6.9-7.461-3.468-1.076-7.246-.22-9.911 2.245s-3.813 6.165-3.011 9.706l6.899 30.481c1.049 4.628 5.161 7.914 9.906 7.915h40.702c5.611 0 10.16-4.549 10.16-10.16s-4.548-10.16-10.16-10.16z" fill-rule="evenodd"></path><path id="Path_57_" clip-rule="evenodd" d="m223.527 138.1h243.848c5.611 0 10.16-4.549 10.16-10.16s-4.549-10.16-10.16-10.16h-243.848c-5.611 0-10.16 4.549-10.16 10.16s4.549 10.16 10.16 10.16z" fill-rule="evenodd"></path><path id="Shape_120_" d="m579.139 87.298c-16.834 0-30.481 13.647-30.481 30.481h-28.236l-41.068-76.548c-4.868-9.153-14.384-14.879-24.751-14.895h-218.304c-10.367.016-19.882 5.742-24.751 14.895l-41.068 76.548h-28.236c0-16.834-13.647-30.481-30.481-30.481h-30.48v-12.03c13.996-4.948 22.392-19.261 19.882-33.892s-15.197-25.326-30.043-25.326-27.531 10.695-30.042 25.326c-2.51 14.632 5.885 28.944 19.882 33.892v12.03h-30.481c-16.834 0-30.481 13.647-30.481 30.481v345.451c0 16.834 13.647 30.481 30.481 30.481h25.807c-17.317 19.277-20.539 47.4-8.031 70.095 12.508 22.694 38.006 34.988 63.552 30.642s45.543-24.381 49.842-49.935h296.479c4.224 25.644 24.241 45.791 49.858 50.179 25.616 4.388 51.198-7.946 63.717-30.722s9.222-50.984-8.212-70.259h15.647c16.834 0 30.481-13.647 30.481-30.481v-345.451c-.001-16.834-13.648-30.481-30.482-30.481zm-508.017-50.802c5.611 0 10.16 4.549 10.16 10.16s-4.549 10.16-10.16 10.16-10.16-4.549-10.16-10.16 4.549-10.16 10.16-10.16zm497.857 81.283c0-5.611 4.549-10.16 10.16-10.16s10.16 4.549 10.16 10.16v314.97h-20.321v-314.97zm-426.734 314.971v-254.009h28.449l47.845 211.579c2.795 12.894 14.198 22.098 27.392 22.109h199.092c13.201-.006 24.616-9.202 27.433-22.099l47.754-211.589h28.449v254.009zm-121.924-203.207h101.603v203.207h-101.603zm528.337-71.122h-23.816l2.794-12.345c.548-2.621.73-5.305.539-7.976h20.483zm-319.207-107.588c1.34-2.547 3.971-4.151 6.848-4.176h218.305c2.878.025 5.509 1.629 6.848 4.176l45.549 84.961c.947 1.782 1.221 3.845.772 5.812l-55.181 244.234c-.749 3.601-3.892 6.204-7.569 6.269h-199.092c-3.696-.039-6.864-2.649-7.61-6.269l-55.221-244.224c-.449-1.97-.175-4.037.772-5.822zm-66.723 87.267c-.191 2.674-.01 5.362.538 7.986l2.794 12.335h-23.816v-20.321zm-132.247-30.481h30.481v30.481h-10.16c-5.611 0-10.16 4.549-10.16 10.16s4.549 10.16 10.16 10.16h40.641c5.611 0 10.16-4.549 10.16-10.16s-4.549-10.16-10.16-10.16h-10.16v-30.481h30.481c5.611 0 10.16 4.549 10.16 10.16v91.443h-101.603v-91.443c0-5.611 4.549-10.16 10.16-10.16zm71.122 467.375c-22.446 0-40.641-18.196-40.641-40.641 0-22.446 18.196-40.641 40.641-40.641s40.641 18.196 40.641 40.641c.001 22.446-18.195 40.641-40.641 40.641zm356.527-50.801h-296.479c-1.923-11.351-7.033-21.922-14.732-30.481h325.944c-7.701 8.559-12.81 19.13-14.733 30.481zm100.689 10.16c0 22.446-18.196 40.641-40.641 40.641-22.446 0-40.641-18.196-40.641-40.641 0-22.446 18.196-40.641 40.641-40.641s40.641 18.195 40.641 40.641zm30.481-71.122c0 5.611-4.549 10.16-10.16 10.16h-548.659c-5.611 0-10.16-4.549-10.16-10.16v-10.16h568.979z"></path><g clip-rule="evenodd" fill-rule="evenodd"><circle id="Oval_6_" cx="101.603" cy="534.353" r="10.16"></circle><circle id="Oval_5_" cx="518.177" cy="534.353" r="10.16"></circle><circle id="Oval_4_" cx="50.802" cy="178.741" r="10.16"></circle><circle id="Oval_3_" cx="91.443" cy="178.741" r="10.16"></circle></g></g></g></g></svg>