<svg xmlns="http://www.w3.org/2000/svg" id="Capa_1" height="512" viewBox="0 0 606.028 606.028" width="512"><g><g id="Page-1_69_"><g id="_x30_70---Bulldozer"><path id="Shape_187_" d="m142.245 419.858c-28.057 0-50.802 22.745-50.802 50.802s22.745 50.802 50.802 50.802 50.802-22.745 50.802-50.802c-.034-28.044-22.759-50.769-50.802-50.802zm0 81.282c-12.328 0-23.443-7.426-28.161-18.816s-2.11-24.5 6.607-33.218c8.718-8.717 21.828-11.325 33.218-6.607s18.816 15.832 18.816 28.161c.001 16.834-13.646 30.48-30.48 30.48z"></path><path id="Shape_186_" d="m365.772 521.461c28.057 0 50.802-22.745 50.802-50.802s-22.745-50.802-50.802-50.802-50.802 22.745-50.802 50.802c.034 28.043 22.759 50.768 50.802 50.802zm0-81.283c16.834 0 30.481 13.647 30.481 30.481s-13.647 30.481-30.481 30.481-30.481-13.647-30.481-30.481 13.647-30.481 30.481-30.481z"></path><path id="Shape_185_" d="m40.641 480.82h.518c2.889 28.324 17.543 54.131 40.387 71.122h-20.584c-5.611 0-10.16 4.549-10.16 10.16s4.549 10.16 10.16 10.16h524.741c6.449.001 12.516-3.059 16.348-8.246s4.975-11.885 3.079-18.049l-75.461-245.23c-2.184-7.142-8.111-12.511-15.434-13.981l-32.706-6.533c-5.974-1.197-12.17.349-16.881 4.214-4.711 3.864-7.439 9.638-7.433 15.731v21.987l-20.321-3.993v-71.031c0-22.446-18.196-40.641-40.641-40.641h-23.673l-51.818-125.703-.071-.284-11.461-27.84c-4.677-11.45-15.827-18.923-28.195-18.898h-138.79c-16.834 0-30.481 13.647-30.481 30.481v142.245h-20.321v-60.962c.007-8.081-3.224-15.828-8.972-21.509l-20.321-20.321c-11.987-11.59-30.993-11.631-43.029-.091-5.771 5.671-9.028 13.419-9.041 21.51s3.218 15.85 8.97 21.54l11.43 11.491v49.786c-17.888 4.617-30.411 20.721-30.48 39.197v193.046c0 22.446 18.196 40.642 40.641 40.642zm-20.32-40.642v-30.481h40.834c-11.205 14.776-18.124 32.353-19.995 50.802h-.518c-11.223 0-20.321-9.098-20.321-20.321zm40.641 30.481c0-44.891 36.392-81.283 81.283-81.283s81.283 36.392 81.283 81.283-36.391 81.283-81.283 81.283c-44.871-.05-81.233-36.412-81.283-81.283zm396.253-43.994c-4.426-9.175-10.204-17.635-17.14-25.096l17.14 3.383zm-10.16 43.994c0 44.891-36.391 81.283-81.283 81.283s-81.283-36.391-81.283-81.283 36.392-81.283 81.283-81.283c44.87.051 81.232 36.413 81.283 81.283zm-182.368-10.16h-21.337c-1.872-18.449-8.79-36.026-19.996-50.802h61.348c-11.212 14.774-18.137 32.351-20.015 50.802zm-61.744 91.443c22.844-16.992 37.499-42.799 40.387-71.122h21.337c2.889 28.324 17.543 54.131 40.387 71.122zm223.527 0c13.084-9.791 23.627-22.578 30.745-37.288v37.288zm51.066-251.773 32.706 6.533 75.461 245.24h-108.167zm-20.321 84.077-268.101-52.6c-11.015-2.174-18.182-12.867-16.008-23.882s12.867-18.182 23.882-16.008l260.227 51.107zm-152.405-218.397c-5.611 0-10.16 4.549-10.16 10.16v30.481h-20.321v-30.48c0-5.611-4.549-10.16-10.16-10.16s-10.16 4.549-10.16 10.16v30.481h-81.283v-111.764h131.851l46.026 111.764h-35.633v-30.481c0-5.612-4.548-10.161-10.16-10.161zm-172.726-101.603c0-5.611 4.549-10.16 10.16-10.16h138.79c4.118-.002 7.829 2.482 9.398 6.289l5.781 14.031h-133.648c-5.611 0-10.16 4.549-10.16 10.16v121.924h-20.321zm-101.603 60.962c.013-2.716 1.132-5.31 3.099-7.183 3.937-3.905 10.287-3.905 14.224 0l20.412 20.412c1.889 1.873 2.937 4.432 2.906 7.092v60.962h-20.32v-52.529c-.011-2.665-1.069-5.22-2.946-7.112l-14.398-14.53c-1.912-1.871-2.986-4.437-2.977-7.112zm10.16 101.603h355.612c11.223 0 20.321 9.098 20.321 20.321v10.16h-30.481c-5.611 0-10.16 4.549-10.16 10.16s4.549 10.16 10.16 10.16h30.481v36.577l-215.684-42.378c-22.03-4.332-43.401 10.015-47.733 32.046-4.332 22.03 10.015 43.401 32.046 47.733l137.805 27.037c-6.334 2.952-12.344 6.554-17.933 10.75h-102.132c-35.93-27.095-85.466-27.095-121.396 0h-61.226v-111.764h30.481c5.611 0 10.16-4.549 10.16-10.16s-4.549-10.16-10.16-10.16h-30.481v-10.16c0-11.224 9.098-20.322 20.32-20.322z"></path><path id="Path_73_" clip-rule="evenodd" d="m10.16 572.263h10.16c5.611 0 10.16-4.549 10.16-10.16s-4.549-10.16-10.16-10.16h-10.16c-5.611 0-10.16 4.549-10.16 10.16s4.549 10.16 10.16 10.16z" fill-rule="evenodd"></path></g></g></g></svg>