<svg xmlns="http://www.w3.org/2000/svg" id="Capa_1" height="512" viewBox="0 0 609.62 609.62" width="512"><g><g id="Page-1_73_"><g id="_x30_74---Construction-Worker" transform="translate(-1)"><g clip-rule="evenodd" fill-rule="evenodd"><path id="Path_83_" d="m315.97 345.451h-20.321c-5.611 0-10.16 4.549-10.16 10.16s4.549 10.16 10.16 10.16h20.321c5.611 0 10.16-4.549 10.16-10.16s-4.549-10.16-10.16-10.16z"></path><path id="Path_82_" d="m255.008 223.527c-5.611 0-10.16 4.549-10.16 10.16v10.16c0 5.611 4.549 10.16 10.16 10.16s10.16-4.549 10.16-10.16v-10.16c0-5.611-4.549-10.16-10.16-10.16z"></path><path id="Path_81_" d="m356.611 254.008c5.611 0 10.16-4.549 10.16-10.16v-10.16c0-5.611-4.549-10.16-10.16-10.16s-10.16 4.549-10.16 10.16v10.16c0 5.612 4.549 10.16 10.16 10.16z"></path><path id="Path_80_" d="m295.649 294.65h20.321c5.611 0 10.16-4.549 10.16-10.16s-4.549-10.16-10.16-10.16h-20.321c-5.611 0-10.16 4.549-10.16 10.16s4.549 10.16 10.16 10.16z"></path></g><path id="Shape_195_" d="m437.894 443.265v-6.371c0-11.223-9.098-20.321-20.321-20.321h-20.321c-3.579.022-7.087 1.001-10.16 2.835-6.265-14.394-9.565-29.902-9.703-45.6l33.001-28.886c11.023-9.648 17.345-23.584 17.344-38.233v-13.056c20.128-4.044 35.82-19.845 39.725-40s-4.752-40.673-21.913-51.941c7.654-3.11 12.662-10.545 12.67-18.807v-20.321c-.024-7.355-4.034-14.119-10.475-17.669-2.944-60.263-43.815-112.014-101.756-128.843-2.012-9.358-10.282-16.045-19.855-16.052h-40.641c-9.573.007-17.843 6.694-19.853 16.053-57.941 16.829-98.812 68.58-101.756 128.843-6.441 3.55-10.451 10.314-10.475 17.669v20.321c.012 8.258 5.02 15.688 12.67 18.797-17.169 11.266-25.831 31.787-21.925 51.948 3.905 20.16 19.603 35.964 39.737 40.004v13.065c.001 14.651 6.327 28.587 17.354 38.233l33.001 28.886c-.143 15.695-3.446 31.2-9.713 45.589-3.073-1.834-6.581-2.813-10.16-2.835h-20.321c-11.223 0-20.321 9.098-20.321 20.321v6.371c-14.89 6.535-28.439 15.775-39.961 27.25-25.411 26.549-39.056 78.143-41.322 117.545-.283 5.634 1.746 11.139 5.619 15.241 3.814 4.051 9.138 6.339 14.702 6.32h386.093c5.559.019 10.878-2.265 14.692-6.31 3.888-4.117 5.922-9.646 5.629-15.302-2.256-39.351-15.901-90.945-41.292-117.474-11.531-11.485-25.091-20.732-39.993-27.27zm-40.642-6.37h20.321v81.283h-20.321zm-162.565 81.282v-58.93c21.425 12.881 46.141 19.236 71.122 18.289 24.981.947 49.697-5.408 71.122-18.289v58.93zm-60.962-335.291v-20.321h264.169v20.321zm50.802-121.518v50.395c0 5.611 4.549 10.16 10.16 10.16s10.16-4.549 10.16-10.16v-64.954c6.471-3.727 13.274-6.846 20.321-9.317v53.951c0 5.611 4.549 10.16 10.16 10.16s10.16-4.549 10.16-10.16v-71.122h40.641v71.122c0 5.611 4.549 10.16 10.16 10.16s10.16-4.549 10.16-10.16v-53.951c7.047 2.471 13.849 5.59 20.321 9.317v64.955c0 5.611 4.549 10.16 10.16 10.16s10.16-4.549 10.16-10.16v-50.396c23.309 20.782 37.712 49.748 40.215 80.876h-242.993c2.502-31.127 16.905-60.093 40.215-80.876zm-20.321 245.322v-22.2c0-5.611-4.549-10.16-10.16-10.16-14.842.124-27.59-10.522-30.112-25.149s5.924-28.928 19.951-33.781v18.289c0 5.611 4.549 10.16 10.16 10.16s10.16-4.549 10.16-10.16v-30.481h203.207v30.481c0 5.611 4.549 10.16 10.16 10.16s10.16-4.549 10.16-10.16v-18.289c14.027 4.853 22.473 19.154 19.951 33.781s-15.269 25.274-30.112 25.149c-5.611 0-10.16 4.549-10.16 10.16v22.2c-.003 8.788-3.8 17.147-10.414 22.932l-55.882 48.932c-5.558 4.856-12.686 7.534-20.067 7.539h-30.481c-7.381-.001-14.511-2.679-20.067-7.539l-55.882-48.932c-6.612-5.786-10.409-14.144-10.412-22.932zm52.946 87.165c9.253 8.091 21.126 12.553 33.417 12.558h30.481c12.305-.001 24.191-4.463 33.458-12.558l3.881-3.404c1.359 16.363 6.601 32.166 15.291 46.097-8.586 7.641-28.886 20.666-67.871 20.666s-59.336-13.056-67.851-20.656c8.696-13.937 13.941-29.747 15.301-46.118zm-63.106 43.04h20.321v81.283h-20.321zm-81.283 152.262c1.961-34.464 13.981-81.902 35.724-104.651 7.406-7.451 15.919-13.713 25.238-18.563v54.104c-12.135 4.29-20.267 15.741-20.321 28.612v40.641zm60.962.143v-40.641c0-5.611 4.549-10.16 10.16-10.16h243.848c5.611 0 10.16 4.549 10.16 10.16v40.641zm284.489 0v-40.641c-.053-12.871-8.186-24.321-20.321-28.612v-54.104c9.333 4.863 17.857 11.142 25.269 18.614 21.723 22.698 33.742 70.137 35.693 104.743z"></path><path id="Path_79_" clip-rule="evenodd" d="m281.282 331.227c7.807 3.054 16.147 4.515 24.527 4.298 8.375.219 16.71-1.235 24.517-4.277 3.309-1.499 5.566-4.65 5.922-8.265s-1.244-7.145-4.196-9.261c-2.953-2.116-6.81-2.496-10.118-.997-10.493 3.297-21.745 3.297-32.239 0-5.109-2.323-11.134-.065-13.457 5.045-2.323 5.109-.065 11.134 5.044 13.457z" fill-rule="evenodd"></path></g></g></g></svg>