<svg xmlns="http://www.w3.org/2000/svg" id="Capa_1" height="512" viewBox="0 0 609.649 609.649" width="512"><g><g id="Page-1_76_"><g id="_x30_77---Powerdrill-Options" transform="translate(-1)"><path id="Shape_205_" d="m580.168 111.778h-111.764c0-16.834-13.647-30.481-30.481-30.481h-50.802v-10.16c0-16.834-13.647-30.481-30.481-30.481h-115.645l-11.897-23.796c-5.136-10.349-15.706-16.881-27.26-16.846h-46.006c-11.554-.036-22.124 6.497-27.26 16.846l-11.898 23.796h-44.523c-39.259.05-71.072 31.863-71.122 71.122v60.962c.043 38.303 30.413 69.693 68.694 71l-46.738 214.84c-14.574 4.2-23.823 18.5-21.676 33.515s15.033 26.15 30.201 26.096h152.405c14.43-.027 26.864-10.169 29.79-24.3 2.926-14.13-4.457-28.376-17.689-34.132l33.682-154.935h52.6c6.072.013 11.823-2.721 15.647-7.437 3.937-4.859 5.465-11.238 4.156-17.354-4.653-22.292 3.505-32.686 7.265-36.171h47.276c16.834 0 30.481-13.647 30.481-30.481v-10.16h50.802c16.834 0 30.481-13.647 30.481-30.481h111.764c16.834 0 30.481-13.647 30.481-30.481s-13.649-30.481-30.483-30.481zm-433.42-85.824c1.707-3.453 5.231-5.633 9.083-5.619h46.006c3.852-.015 7.376 2.165 9.083 5.619l7.356 14.702h-78.885zm-56.248 217.908h131.648l-46.362 213.367h-131.668zm93.415 254.009h-152.406c-5.611 0-10.16-4.549-10.16-10.16s4.549-10.16 10.16-10.16h150.617c.593.113 1.195.178 1.798.193.173 0 .325-.081.498-.091 5.192.636 9.052 5.111 8.921 10.34-.131 5.228-4.211 9.503-9.428 9.878zm98.382-213.367h-48.18l8.829-40.641h42.226c-5.295 12.887-6.303 27.136-2.875 40.641zm84.504-71.123c0 5.611-4.549 10.16-10.16 10.16h-284.49c-28.043-.034-50.768-22.759-50.802-50.802h30.481c5.611 0 10.16-4.549 10.16-10.16s-4.549-10.16-10.16-10.16h-30.481v-20.321h30.481c5.611 0 10.16-4.549 10.16-10.16s-4.549-10.16-10.16-10.16h-30.481c.034-28.043 22.759-50.768 50.802-50.802h172.726v40.641c0 5.611 4.549 10.16 10.16 10.16s10.16-4.549 10.16-10.16v-40.641h20.321v40.641c0 5.611 4.549 10.16 10.16 10.16s10.16-4.549 10.16-10.16v-40.641h20.321v40.641c0 5.611 4.549 10.16 10.16 10.16s10.16-4.549 10.16-10.16v-40.641h10.16c5.611 0 10.16 4.549 10.16 10.16v142.245zm81.282-40.641c0 5.611-4.549 10.16-10.16 10.16h-50.802v-81.283h50.802c5.611 0 10.16 4.549 10.16 10.16zm132.085-20.321h-111.764v-20.321h111.764c5.611 0 10.16 4.549 10.16 10.16 0 5.612-4.549 10.161-10.16 10.161z"></path><circle id="Oval_7_" clip-rule="evenodd" cx="417.602" cy="132.099" fill-rule="evenodd" r="10.16"></circle><path id="Shape_204_" d="m601.962 381.88c6.426-9.901 6.763-22.568.874-32.798l-15.982-27.941c-5.605-9.929-16.305-15.876-27.697-15.393l-21.743 1.016-46.148-26.894-9.917-19.305c-5.133-10.214-15.575-16.672-27.006-16.704h-32.838c-11.427.028-21.867 6.477-27.006 16.683l-9.917 19.305-46.148 26.874-21.743-1.016c-11.408-.55-22.141 5.415-27.697 15.393l-15.982 27.931c-5.879 10.236-5.542 22.9.874 32.808l11.634 18.024v53.768l-11.634 17.984c-6.426 9.901-6.763 22.568-.874 32.798l15.982 27.941c5.63 9.904 16.314 15.841 27.697 15.393l21.743-1.016 46.148 26.874 9.917 19.305c5.128 10.222 15.57 16.689 27.006 16.724h32.838c11.427-.028 21.867-6.477 27.006-16.683l9.917-19.305 46.148-26.874 21.743 1.016c11.383.448 22.067-5.489 27.697-15.393l15.982-27.931c5.879-10.236 5.542-22.9-.874-32.808l-11.634-18.024v-53.768zm-30.329 80.267 13.259 20.483c2.254 3.535 2.371 8.026.305 11.674l-15.982 27.951c-1.801 3.339-5.354 5.352-9.144 5.182l-24.71-1.118c-1.953-.089-3.889.387-5.578 1.372l-51.31 29.882c-1.68.977-3.045 2.416-3.932 4.145l-11.217 21.967c-1.68 3.408-5.132 5.584-8.931 5.629h-32.889c-3.799-.045-7.251-2.221-8.931-5.629l-11.227-21.977c-.887-1.729-2.252-3.168-3.932-4.145l-51.31-29.882c-1.543-.899-3.295-1.375-5.08-1.382h-.539l-24.72 1.138c-3.79.173-7.345-1.841-9.144-5.182l-15.972-27.941c-2.065-3.645-1.947-8.132.305-11.664l13.208-20.504c1.062-1.644 1.626-3.56 1.626-5.517v-59.763c.001-1.957-.564-3.873-1.626-5.517l-13.208-20.504c-2.254-3.535-2.371-8.026-.305-11.674l15.982-27.941c1.787-3.353 5.35-5.372 9.144-5.182l24.72 1.138c1.955.118 3.9-.36 5.578-1.372l51.31-29.882c1.68-.977 3.045-2.416 3.932-4.145l11.268-21.977c1.678-3.405 5.125-5.58 8.921-5.629h32.838c3.799.045 7.251 2.221 8.931 5.629l11.227 21.977c.887 1.729 2.252 3.168 3.932 4.145l51.31 29.882c1.675 1.017 3.622 1.496 5.578 1.372l24.72-1.138c3.793-.183 7.352 1.834 9.144 5.182l16.064 27.951c2.065 3.645 1.947 8.132-.305 11.664l-13.31 20.504c-1.062 1.644-1.626 3.56-1.626 5.517v59.763c0 1.958.564 3.874 1.626 5.518z"></path><path id="Shape_203_" d="m437.923 325.145c-56.114 0-101.603 45.489-101.603 101.603s45.489 101.603 101.603 101.603 101.603-45.489 101.603-101.603c-.061-56.088-45.515-101.541-101.603-101.603zm0 182.886c-44.891 0-81.283-36.392-81.283-81.283s36.392-81.283 81.283-81.283 81.283 36.392 81.283 81.283c-.051 44.871-36.413 81.233-81.283 81.283z"></path></g></g></g></svg>