<svg xmlns="http://www.w3.org/2000/svg" id="Capa_1" height="512" viewBox="0 0 609.62 609.62" width="512"><g><g id="Page-1_78_"><g id="_x30_79---Lifting-Skip"><path id="Shape_208_" d="m335.291 71.122c0-16.834-13.647-30.481-30.481-30.481s-30.481 13.647-30.481 30.481 13.647 30.481 30.481 30.481 30.481-13.646 30.481-30.481zm-40.641 0c0-5.611 4.549-10.16 10.16-10.16s10.16 4.549 10.16 10.16-4.549 10.16-10.16 10.16-10.16-4.548-10.16-10.16z"></path><path id="Shape_207_" d="m589.3 335.291h-50.802v-10.16c-.007-12.325-7.435-23.432-18.822-28.146s-24.493-2.107-33.209 6.607l-151.978-59.103c9.956-7.083 16.977-17.563 19.741-29.465 5.491-23.179-5.803-47.069-27.199-57.538-6.19-2.815-10.569-8.531-11.674-15.241h10.414c9.031-.004 17.593-4.021 23.369-10.963l40.001-47.967c4.59-5.481 7.107-12.4 7.112-19.548v-33.286c0-16.834-13.647-30.481-30.481-30.481h-121.924c-16.834 0-30.481 13.647-30.481 30.481v33.285c.009 7.148 2.526 14.066 7.112 19.548l40.001 47.987c5.772 6.948 14.336 10.969 23.369 10.973h10.983c1.11 14.572 10.021 27.401 23.288 33.529 12.882 6.36 19.651 20.786 16.307 34.759-3.653 15.023-17.975 24.931-33.321 23.052-15.346-1.878-26.855-14.948-26.777-30.409 0-5.611-4.549-10.16-10.16-10.16s-10.16 4.549-10.16 10.16c-.04 15.486 7.017 30.137 19.152 39.757.691.549 1.463.945 2.174 1.453l-152.182 59.174c-8.716-8.713-21.822-11.321-33.209-6.607s-18.815 15.822-18.822 28.146v10.16h-50.801c-11.223.003-20.321 9.101-20.321 20.324v30.481c.007 8.222 4.968 15.629 12.568 18.766l62.141 177.542c5.705 16.304 21.092 27.221 38.365 27.22h383.471c17.273.002 32.661-10.915 38.365-27.22l62.141-177.542c7.6-3.137 12.561-10.544 12.568-18.766v-30.481c.001-11.223-9.097-20.321-20.319-20.321zm-313.254-217.025-40.011-47.997c-1.518-1.827-2.349-4.127-2.347-6.503v-33.285c0-5.611 4.549-10.16 10.16-10.16h121.924c5.611 0 10.16 4.549 10.16 10.16v33.285c.002 2.375-.829 4.676-2.347 6.503l-40.001 48.008c-1.931 2.313-4.79 3.649-7.803 3.648h-41.932c-3.015-.002-5.873-1.342-7.803-3.659zm221.811 206.865c0-5.611 4.549-10.16 10.16-10.16s10.16 4.549 10.16 10.16v10.16h-20.321v-10.16zm-193.047-70.381 173.041 67.333c-.16 1.01-.265 2.027-.315 3.048v10.16h-345.452v-10.16c-.05-1.021-.155-2.039-.315-3.048zm-213.367 70.381c0-5.611 4.549-10.16 10.16-10.16s10.16 4.549 10.16 10.16v10.16h-20.32zm-71.122 30.481h568.979v30.481h-568.979zm495.408 220.083c-2.854 8.15-10.547 13.606-19.183 13.605h-383.472c-8.635.002-16.329-5.455-19.183-13.605l-59.244-169.281h36.476v20.321c0 5.611 4.549 10.16 10.16 10.16s10.16-4.549 10.16-10.16v-20.321h20.321v20.321c0 5.611 4.549 10.16 10.16 10.16s10.16-4.549 10.16-10.16v-20.321h345.451v20.321c0 5.611 4.549 10.16 10.16 10.16s10.16-4.549 10.16-10.16v-20.321h20.321v20.321c0 5.611 4.549 10.16 10.16 10.16s10.16-4.549 10.16-10.16v-20.321h36.476z"></path><path id="Path_84_" clip-rule="evenodd" d="m152.405 548.658h-24.913l-4.887-13.95c-1.852-5.297-7.647-8.09-12.944-6.238s-8.09 7.647-6.238 12.944l7.265 20.758c1.425 4.077 5.272 6.807 9.591 6.807h32.127c5.611 0 10.16-4.549 10.16-10.16-.001-5.612-4.55-10.161-10.161-10.161z" fill-rule="evenodd"></path></g></g></g></svg>